<svg xmlns="http://www.w3.org/2000/svg" xmlnsXlink="http://www.w3.org/1999/xlink" xmlnsFi="http://pattern.flaticon.com/" x="0" y="0" width="3000" height="1500" viewBox="0 0 2625 1312.5"><rect x="0px" y="0px" width="100%" height="100%" opacity="0" fill="#ffffff"/><defs><g transform="matrix(0.1171877309679985 0 0 0.1171877309679985 260.9999990844708 210)" id="L1_4"><path d="M308.981,351.758L64.005,509.118c-8.432,5.416-19.659,2.972-25.075-5.461l0,0  c-5.417-8.433-2.972-19.659,5.461-25.076l243.345-156.311" id="SVGCleanerId_0" fill="#f7cf69"/><path d="M308.981,351.758L64.005,509.118c-8.432,5.416-19.659,2.972-25.075-5.461   l0,0c-5.417-8.433-2.972-19.659,5.461-25.076l243.345-156.311" id="SVGCleanerId_0_1_" fill="#f7cf69"/><path d="M54.706,495.53l243.345-156.311l9.635,13.373l1.295-0.832l-21.245-29.487L44.39,478.583  c-8.433,5.416-10.877,16.643-5.461,25.076l0,0c1.894,2.949,4.506,5.146,7.452,6.55C46.574,504.45,49.492,498.878,54.706,495.53z" fill="#ffb64c"/><path d="M372.532,336.68c-19.773,12.708-76.248,22.299-85.498,7.908  c-11.802-18.374,24.375-62.663,42.749-74.466c9.522-6.111,40.322-10.395,54.653,11.904  C396.238,300.401,390.915,324.866,372.532,336.68z" fill="#e63950"/><path d="M338.624,294.407c8.987-5.768,36.917-9.895,52.077,8.4c-0.1-7.138-2.125-14.334-6.267-20.781  c-14.331-22.3-45.13-18.016-54.653-11.904c-18.375,11.802-54.551,56.092-42.749,74.466c1.563,2.432,4.478,4.176,8.332,5.339  C301.972,329.336,325.112,303.087,338.624,294.407z" fill="#cc2e43"/><path d="M384.062,188.205L384.062,188.205c-5.875-5.875-15.399-5.875-21.273,0l-3.318,3.318  c-0.792,0.792-2.074,0.792-2.865,0l-3.265-3.265c-5.875-5.875-15.399-5.875-21.272,0l0,0c-5.875,5.875-5.875,15.399,0,21.273  l24.54,24.54c0.792,0.792,2.074,0.792,2.865,0l24.589-24.594C389.937,203.604,389.937,194.08,384.062,188.205z" fill="#ec5569"/><path d="M457.329,116.856L358.733,2.667c-3.179-3.681-8.152-3.534-11.106,0.33L255.792,123.09  c-21.939,28.686-20.591,74.098,3.009,101.433l0,0c16.445,19.047,39.351,24.271,59.154,15.993c1.122-0.469,1.122-2.061,0.008-2.549  c-4.038-1.765-7.861-4.656-11.179-8.685l0,0c-12.223-14.841-12.953-39.47-1.632-55.01l47.389-65.059  c1.518-2.085,4.103-2.162,5.742-0.171l51.061,62c12.223,14.841,12.953,39.47,1.632,55.01l0,0c-2.851,3.914-6.196,6.876-9.799,8.882  c-1.033,0.576-0.92,2.106,0.189,2.517c20.481,7.587,43.465,1.11,58.971-19.163C482.278,189.604,480.93,144.19,457.329,116.856z" fill="#b5d3e3"/><path d="M289.717,224.523L289.717,224.523c-23.602-27.334-24.95-72.747-3.01-101.433l82.664-108.101  L358.733,2.667c-3.179-3.681-8.152-3.534-11.106,0.33L255.792,123.09c-21.939,28.685-20.591,74.098,3.009,101.432h0.001  c15.54,17.998,36.847,23.644,55.856,17.229C305.628,238.722,297.033,232.995,289.717,224.523z" fill="#8abbd5"/></g><g transform="matrix(0.1171875 0 0 0.1171875 -12.999998226165758 301)" id="L1_5"><path d="M285.858,214.999c-11.022-2.427-22.345,1.788-29.403,10.456c-4.746,5.829-7.876,12.705-9.962,20.042  c-13.07-3.406-26.649-9.596-30.84-22.961c-1.384-4.414-1.284-8.83-0.134-13.078c7.431,1.791,15.044,2.733,22.644,2.431  c12.25-0.488,25.659-4.531,32.16-15.807c3.733-6.475,5.284-15.587,2.072-22.506c-5.452-11.744-19.755-12.756-30.592-8.993  c-12.816,4.449-26.073,14.119-34.308,26.373c-2.263-0.831-4.461-1.728-6.536-2.683c-27.487-12.648-50.617-37.06-50.851-68.766  c-0.073-9.898-15.462-9.921-15.389,0c0.271,36.885,26.05,67.135,58.473,82.054c2.515,1.157,5.083,2.25,7.693,3.265  c-1.445,4.989-1.984,10.194-1.333,15.495c2.824,23.017,23.569,34.789,44.009,40.217c-1.015,8.311-1.245,16.709-1.389,24.46  c-0.082,4.423-0.074,8.848-0.073,13.272c0.003,9.902,15.392,9.919,15.389,0c-0.003-11.509-0.114-23.243,1.362-34.722  c16.739,2.165,36.715,0.698,43.087-16.823C306.918,233.035,300.721,218.271,285.858,214.999z M244.026,180.113  c3.514-1.471,10.486-4.238,13.601-0.688c5.085,5.796-4.627,13.68-9.313,15.364c-4.224,1.517-8.69,1.655-13.128,1.66  c-1.61,0.002-11.445-1.538-11.859-1.051C229.157,188.542,237.018,183.045,244.026,180.113z M261.884,248.506  c1.65-5.772,4.078-11.842,8.763-15.689c4.526-3.716,16.906-5.548,17.724,3.131C289.648,249.513,273.443,249.919,261.884,248.506z" fill="#2e3c43"/><path d="M371.46,512H126.825c-4.533,0-8.207-3.675-8.207-8.207V297.872c0-4.533,3.675-8.207,8.207-8.207  h244.636c4.533,0,8.207,3.675,8.207,8.207v205.921C379.668,508.325,375.993,512,371.46,512z" fill="#b5d3e3"/><g><rect x="162px" y="328px" width="57px" height="183px" fill="#f7cf69"/><rect x="278px" y="328px" width="57px" height="183px" fill="#f7cf69"/></g><g><path d="M104.207,339.054c-0.001,0.095-0.007,0.189-0.007,0.284c0,16.01,12.979,28.989,28.989,28.989   s28.989-12.979,28.989-28.989c0-0.096-0.006-0.189-0.007-0.284H104.207z" fill="#7acba7"/><path d="M162.184,339.054c-0.001,0.095-0.007,0.189-0.007,0.284c0,16.01,12.979,28.989,28.989,28.989   s28.989-12.979,28.989-28.989c0-0.096-0.006-0.189-0.007-0.284H162.184z" fill="#7acba7"/><path d="M220.161,339.054c-0.001,0.095-0.007,0.189-0.007,0.284c0,16.01,12.979,28.989,28.989,28.989   s28.989-12.979,28.989-28.989c0-0.096-0.006-0.189-0.007-0.284H220.161z" fill="#7acba7"/><path d="M278.138,339.054c-0.001,0.095-0.007,0.189-0.007,0.284c0,16.01,12.979,28.989,28.989,28.989   c16.01,0,28.989-12.979,28.989-28.989c0-0.096-0.006-0.189-0.007-0.284H278.138z" fill="#7acba7"/><path d="M336.108,339.338c0,16.01,12.979,28.989,28.989,28.989c16.01,0,28.989-12.979,28.989-28.989   c0-0.096-0.006-0.189-0.007-0.284h-57.963C336.114,339.149,336.108,339.242,336.108,339.338z" fill="#7acba7"/></g><circle cx="483" cy="459" r="21" fill="#168c80"/><path d="M347.554,259.154l-10.179-10.069c-0.788-0.78-1.096-1.923-0.807-2.992l12.805-47.314  c0.68-2.514,3.98-3.099,5.484-0.973l26.787,37.876c1.002,1.418,0.635,3.382-0.812,4.343l-29.412,19.507  C350.205,260.336,348.592,260.179,347.554,259.154z" fill="#f7cf69"/><path d="M152.805,251.631l-21.799-18.94c-1.091-0.948-1.376-2.528-0.684-3.798l13.768-25.241  c1.39-2.548,5.211-1.933,5.73,0.923l8.031,44.181C158.371,251.618,155,253.538,152.805,251.631z" fill="#b5d3e3"/><path d="M88.203,246.421L54.26,271.224c-1.962,1.434-4.732,0.136-4.888-2.288l-3.916-61.025  c-0.18-2.799,3.173-4.36,5.199-2.421l37.859,36.222C89.899,243.036,89.75,245.289,88.203,246.421z" fill="#7acba7"/><path d="M437.996,247.565l-9.014-31.621c-0.666-2.336,1.509-4.486,3.839-3.794l45.841,13.645  c2.688,0.801,2.993,4.485,0.472,5.716l-36.828,17.977C440.583,250.327,438.521,249.406,437.996,247.565z" fill="#b5d3e3"/><path d="M398.015,168.977l-19.497-60.789c-0.751-2.34,1.409-4.572,3.773-3.9l40.007,11.376  c1.032,0.294,1.838,1.104,2.124,2.139l7.143,25.791c0.319,1.152-0.058,2.385-0.967,3.162l-27.653,23.622  C401.273,171.805,398.687,171.07,398.015,168.977z" fill="#f7cf69"/><path d="M104.182,339.054v-41.182c0-4.533,3.675-8.207,8.207-8.207h273.505c4.533,0,8.207,3.675,8.207,8.207  v41.182" fill="#168c80"/><path d="M131.902,339.338c0-0.095,0.007-0.189,0.007-0.284h-0.025v-49.39h-13.267h-6.227  c-4.533,0-8.207,3.675-8.207,8.207v41.182h0.025c-0.001,0.095-0.007,0.189-0.007,0.284c0,10.696,5.797,20.033,14.417,25.056v139.398  c0,4.533,3.675,8.207,8.207,8.207h19.495V364.394C137.7,359.371,131.902,350.034,131.902,339.338z" fill="#8abbd5"/><path d="M104.207,339.054c0,0.048-0.002,0.095-0.004,0.143c-0.001,0.047-0.003,0.094-0.003,0.141  c0,0.603,0.024,1.201,0.061,1.795c0.01,0.171,0.026,0.34,0.039,0.511c0.035,0.445,0.08,0.887,0.135,1.326  c0.021,0.164,0.039,0.328,0.063,0.491c0.167,1.168,0.402,2.313,0.704,3.432c0.038,0.143,0.08,0.285,0.121,0.426  c0.127,0.443,0.264,0.883,0.41,1.316c0.042,0.126,0.083,0.252,0.128,0.376c0.392,1.106,0.85,2.183,1.368,3.224  c0.048,0.095,0.097,0.189,0.146,0.285c0.231,0.451,0.473,0.897,0.727,1.333c0.042,0.072,0.082,0.145,0.124,0.216  c0.609,1.029,1.279,2.018,2.007,2.959c0.033,0.043,0.067,0.085,0.1,0.127c0.351,0.45,0.716,0.891,1.093,1.32  c0.017,0.019,0.033,0.038,0.05,0.057c0.813,0.918,1.682,1.785,2.604,2.594c0.009,0.008,0.018,0.015,0.027,0.023  c1.394,1.22,2.905,2.309,4.514,3.247l0,0c4.283,2.496,9.257,3.931,14.571,3.931c4.728,0,9.187-1.139,13.131-3.147v-0.786  c-8.62-5.023-14.417-14.36-14.417-25.056c0-0.096,0.007-0.189,0.007-0.284h-0.025l0,0h-27.679V339.054z" fill="#57bf93"/><path d="M131.884,289.664H112.39c-4.533,0-8.207,3.675-8.207,8.208v41.182h27.702V289.664z" fill="#13776b"/><path d="M187.972,14.161L187.972,14.161c-18.881-18.881-49.494-18.881-68.375,0l-10.665,10.665  c-2.543,2.543-6.667,2.543-9.209,0L89.228,14.331c-18.881-18.881-49.493-18.881-68.375,0l0,0c-18.881,18.881-18.881,49.494,0,68.375  l78.876,78.876c2.543,2.543,6.667,2.543,9.209,0l79.034-79.047C206.853,63.654,206.853,33.042,187.972,14.161z" fill="#ec5569"/><path d="M51.634,82.706c-18.881-18.881-18.881-49.494,0-68.375l0,0c5.471-5.471,11.928-9.345,18.797-11.645  C53.59-2.954,34.264,0.92,20.854,14.331l0,0c-18.881,18.881-18.881,49.494,0,68.375l78.876,78.876c2.543,2.544,6.667,2.544,9.209,0  l10.785-10.787L51.634,82.706z" fill="#e63950"/></g><g transform="matrix(0.1171875 0 0 0.1171875 106 27.000001716613724)" id="L1_6"><path d="M403.1,172.921L403.1,172.921c-33.405-33.449-87.6-33.485-121.049-0.08l-18.894,18.869  c-4.505,4.499-11.805,4.495-16.304-0.011l-18.567-18.592c-33.405-33.449-87.6-33.485-121.049-0.08l0,0  C11.82,268.443,246.703,478,246.703,478c4.499,4.505,11.799,4.51,16.304,0.011C263.008,478.011,503.378,256.655,403.1,172.921z" fill="#ec5569"/><path d="M138.209,173.027L138.209,173.027c12.75-12.733,28.515-20.592,44.993-23.609  c-26.711-4.888-55.297,2.968-75.966,23.609l0,0C11.82,268.443,246.703,478,246.703,478c4.499,4.505,11.799,4.51,16.304,0.011  c0,0,2.639-2.431,7.236-6.866C231.032,434.303,53.039,258.196,138.209,173.027z" fill="#e63950"/><path d="M426.287,243.752c18.053,9.389,27.767,20.044,27.767,31.816c0,34.391-88.672,62.271-198.054,62.271  s-198.054-27.88-198.054-62.271c0-11.661,9.585-22.251,27.324-31.582c-0.412-3.177-0.626-6.508-0.639-9.993  C32.666,248.724,0,270.055,0,293.787c0,44.454,114.615,80.49,256,80.49s256-36.037,256-80.49c0-23.757-32.611-45.109-84.674-59.841  C427.125,237.109,426.766,240.387,426.287,243.752z" fill="#b5d3e3"/><g><path d="M454.054,275.568c0,32.753-80.424,59.598-182.567,62.082c5.111,0.124,10.274,0.189,15.486,0.189   c109.382,0,198.054-27.88,198.054-62.271c0-11.363-9.074-21.681-25.939-30.829c-9.526-3.895-20.157-7.51-31.762-10.793   c-0.201,3.163-0.56,6.441-1.039,9.806C444.34,253.14,454.054,263.796,454.054,275.568z" fill="#8abbd5"/><path d="M30.973,293.787c0-18.383,19.611-35.322,52.598-48.872c0.566-0.31,1.116-0.622,1.7-0.929   c-0.412-3.177-0.626-6.508-0.639-9.993C32.666,248.724,0,270.055,0,293.787c0,44.454,114.615,80.49,256,80.49   c5.201,0,10.362-0.054,15.486-0.151C137.315,371.608,30.973,336.605,30.973,293.787z" fill="#8abbd5"/></g><path d="M162.997,105.692l14.309,19.59c0.397,0.511,0.852,1.022,1.42,1.42l19.59,14.309  c3.521,2.555,3.521,7.836,0,10.448l-19.59,14.309c-0.511,0.397-1.022,0.852-1.42,1.42l-14.309,19.59  c-2.555,3.521-7.836,3.521-10.448,0l-14.309-19.59c-0.397-0.511-0.852-1.022-1.42-1.42l-19.59-14.309  c-3.521-2.555-3.521-7.836,0-10.448l19.59-14.309c0.511-0.397,1.022-0.852,1.42-1.42l14.309-19.59  C155.161,102.115,160.385,102.115,162.997,105.692z" fill="#f7cf69"/><path d="M169.212,167.189c-0.397-0.511-0.852-1.022-1.42-1.419l-19.59-14.31c-3.52-2.555-3.52-7.836,0-10.448  l19.59-14.31c0.511-0.397,1.022-0.852,1.42-1.419l4.047-5.541l-10.262-14.05c-2.612-3.577-7.836-3.577-10.448,0l-14.309,19.59  c-0.397,0.568-0.909,1.022-1.42,1.419l-19.59,14.31c-3.52,2.612-3.52,7.893,0,10.448l19.59,14.31  c0.568,0.397,1.022,0.908,1.42,1.419l14.309,19.59c2.612,3.52,7.893,3.52,10.448,0l10.262-14.049L169.212,167.189z" fill="#ffb64c"/><g><path d="M446.377,416.643l10.207,13.974c0.284,0.365,0.608,0.729,1.013,1.013l13.974,10.207   c2.511,1.823,2.511,5.589,0,7.453l-13.974,10.207c-0.365,0.284-0.729,0.608-1.013,1.013l-10.207,13.973   c-1.823,2.511-5.589,2.511-7.452,0l-10.207-13.973c-0.283-0.365-0.608-0.729-1.013-1.013l-13.974-10.207   c-2.511-1.823-2.511-5.589,0-7.453l13.974-10.207c0.365-0.284,0.729-0.608,1.013-1.013l10.207-13.974   C440.787,414.091,444.514,414.091,446.377,416.643z" fill="#b5d3e3"/><ellipse cx="59px" cy="52px" rx="30px" ry="30px" fill="#b5d3e3"/></g><path d="M66.143,70.676c-10.224-13.344-7.696-32.45,5.648-42.674c0.981-0.752,1.995-1.426,3.032-2.04  c-10.373-6.128-23.854-5.738-34.005,2.04c-13.344,10.224-15.873,29.33-5.648,42.674c9.473,12.363,26.567,15.434,39.642,7.688  C71.549,76.436,68.59,73.87,66.143,70.676z" fill="#8abbd5"/><circle cx="445" cy="66" r="37" fill="#f7cf69"/><path d="M438.981,66.22c0-15.33,9.143-28.517,22.268-34.43c-4.727-2.129-9.966-3.324-15.486-3.324  c-20.851,0-37.754,16.903-37.754,37.754s16.903,37.754,37.754,37.754c5.521,0,10.759-1.195,15.486-3.324  C448.124,94.737,438.981,81.55,438.981,66.22z" fill="#ffb64c"/><ellipse cx="58px" cy="345px" rx="23px" ry="23px" fill="#f7cf69"/><g><path d="M244.217,235.286c3.166,0.058,6.394,0.088,9.595,0.088c17.306,0,34.518-0.855,51.157-2.541   c4.254-0.432,7.354-4.23,6.923-8.484s-4.23-7.35-8.484-6.923c-16.122,1.634-32.809,2.462-49.595,2.462   c-3.107,0-6.239-0.029-9.311-0.085c-4.3-0.079-7.805,3.324-7.883,7.599C236.54,231.678,239.942,235.208,244.217,235.286z" fill="#cc2e43"/><path d="M254.479,266.871c0.069,4.233,3.521,7.617,7.739,7.617c0.042,0,0.085-0.001,0.128-0.001   c38.561-0.624,75.9-5.535,107.981-14.203c4.128-1.115,6.571-5.366,5.455-9.494c-1.115-4.127-5.366-6.572-9.494-5.455   c-30.864,8.338-66.894,13.065-104.194,13.669C257.819,259.073,254.41,262.595,254.479,266.871z" fill="#cc2e43"/></g><path d="M57.351,479.571c-0.196-0.465-0.434-0.919-0.712-1.342c-0.279-0.423-0.609-0.815-0.96-1.177  c-0.361-0.351-0.754-0.682-1.177-0.96c-0.423-0.279-0.878-0.516-1.342-0.712s-0.95-0.341-1.445-0.444  c-1.001-0.196-2.033-0.196-3.024,0c-0.496,0.103-0.981,0.248-1.456,0.444c-0.465,0.196-0.908,0.434-1.332,0.712  c-0.423,0.279-0.816,0.609-1.177,0.96c-0.361,0.361-0.681,0.754-0.96,1.177s-0.516,0.878-0.712,1.342  c-0.197,0.464-0.341,0.95-0.444,1.445s-0.155,1.012-0.155,1.518c0,0.496,0.051,1.012,0.155,1.507s0.248,0.98,0.444,1.445  c0.196,0.475,0.434,0.919,0.712,1.342c0.279,0.423,0.598,0.816,0.96,1.177c0.361,0.361,0.754,0.682,1.177,0.96  c0.423,0.279,0.867,0.516,1.332,0.712c0.475,0.196,0.96,0.341,1.456,0.444c0.496,0.103,1.001,0.155,1.507,0.155  s1.012-0.052,1.517-0.155c0.496-0.103,0.981-0.247,1.445-0.444c0.465-0.196,0.919-0.434,1.342-0.712s0.816-0.599,1.177-0.96  c0.351-0.361,0.681-0.754,0.96-1.177s0.516-0.867,0.712-1.342c0.196-0.465,0.341-0.95,0.444-1.445  c0.093-0.496,0.145-1.012,0.145-1.507c0-0.506-0.052-1.022-0.145-1.518C57.692,480.521,57.547,480.036,57.351,479.571z" fill="#b5d3e3"/><g><path d="M113.645,403.889c-0.196-0.465-0.434-0.919-0.712-1.332c-0.279-0.423-0.609-0.826-0.96-1.177   c-0.361-0.361-0.754-0.681-1.177-0.96c-0.423-0.279-0.867-0.527-1.342-0.712c-0.465-0.197-0.95-0.351-1.445-0.444   c-1.002-0.207-2.023-0.207-3.025,0c-0.496,0.093-0.981,0.248-1.445,0.444c-0.475,0.186-0.919,0.434-1.342,0.712   c-0.423,0.279-0.815,0.599-1.177,0.96c-0.351,0.351-0.682,0.754-0.96,1.177c-0.279,0.413-0.516,0.867-0.712,1.332   c-0.196,0.475-0.341,0.96-0.444,1.456s-0.144,1.001-0.144,1.507c0,0.506,0.041,1.012,0.144,1.517   c0.103,0.496,0.248,0.981,0.444,1.446c0.196,0.464,0.434,0.918,0.712,1.331c0.279,0.434,0.609,0.826,0.96,1.188   c0.361,0.351,0.754,0.671,1.177,0.96c0.423,0.279,0.868,0.516,1.342,0.712c0.464,0.186,0.95,0.341,1.445,0.434   c0.496,0.103,1.012,0.155,1.518,0.155c0.496,0,1.012-0.052,1.507-0.155c0.496-0.093,0.98-0.248,1.445-0.434   c0.475-0.196,0.919-0.434,1.342-0.712c0.423-0.289,0.816-0.609,1.177-0.96c0.351-0.361,0.682-0.754,0.96-1.188   c0.279-0.413,0.516-0.867,0.712-1.331c0.196-0.465,0.341-0.95,0.444-1.446c0.103-0.506,0.145-1.012,0.145-1.517   c0-0.506-0.041-1.012-0.145-1.507C113.986,404.85,113.841,404.364,113.645,403.889z" fill="#3f7196"/><path d="M164.922,465.727c-0.196-0.464-0.434-0.919-0.712-1.342c-0.279-0.423-0.609-0.816-0.96-1.177   c-1.796-1.796-4.47-2.622-6.989-2.116c-0.495,0.103-0.98,0.247-1.445,0.444c-0.475,0.196-0.919,0.434-1.342,0.712   c-0.423,0.279-0.816,0.609-1.177,0.96c-0.351,0.361-0.682,0.754-0.96,1.177c-0.279,0.423-0.516,0.878-0.712,1.342   c-0.196,0.465-0.341,0.95-0.444,1.445c-0.103,0.496-0.144,1.012-0.144,1.518c0,2.034,0.826,4.037,2.261,5.471   c0.361,0.361,0.754,0.682,1.177,0.96c0.423,0.279,0.867,0.516,1.342,0.712c0.465,0.196,0.95,0.341,1.445,0.444   c0.496,0.103,1.012,0.155,1.518,0.155c2.033,0,4.026-0.826,5.471-2.271c1.435-1.435,2.271-3.437,2.271-5.471   c0-0.506-0.052-1.022-0.155-1.518C165.263,466.677,165.118,466.192,164.922,465.727z" fill="#3f7196"/><path d="M237.208,41.585c0.196,0.465,0.434,0.919,0.712,1.332c0.279,0.423,0.609,0.826,0.96,1.177   c0.361,0.361,0.754,0.682,1.177,0.97c0.423,0.279,0.878,0.516,1.342,0.712c0.464,0.186,0.95,0.341,1.445,0.434   c0.506,0.103,1.012,0.155,1.518,0.155c0.506,0,1.012-0.052,1.507-0.155c0.496-0.093,0.98-0.248,1.455-0.434   c0.465-0.196,0.909-0.434,1.332-0.712c0.423-0.289,0.826-0.609,1.177-0.97c0.361-0.351,0.682-0.754,0.96-1.177   c0.279-0.413,0.526-0.867,0.712-1.332c0.196-0.464,0.341-0.96,0.444-1.445c0.103-0.506,0.155-1.012,0.155-1.517   c0-0.506-0.052-1.012-0.155-1.507c-0.103-0.496-0.247-0.992-0.444-1.456c-0.186-0.465-0.434-0.919-0.712-1.332   c-0.279-0.423-0.599-0.826-0.96-1.177c-0.351-0.361-0.754-0.681-1.177-0.97c-0.423-0.279-0.867-0.516-1.332-0.702   c-0.475-0.196-0.96-0.351-1.455-0.444c-0.991-0.207-2.023-0.207-3.025,0c-0.495,0.093-0.981,0.248-1.445,0.444   c-0.465,0.186-0.919,0.423-1.342,0.702c-0.423,0.289-0.816,0.609-1.177,0.97c-1.435,1.435-2.261,3.438-2.261,5.472   c0,0.506,0.051,1.012,0.144,1.517C236.867,40.625,237.012,41.121,237.208,41.585z" fill="#3f7196"/></g><path d="M297.766,104.063c0.196,0.465,0.434,0.919,0.712,1.332c0.279,0.423,0.609,0.826,0.96,1.177  c0.361,0.361,0.754,0.682,1.177,0.97c0.423,0.279,0.867,0.516,1.342,0.702c0.465,0.196,0.95,0.351,1.446,0.444  c0.496,0.103,1.012,0.155,1.517,0.155c0.506,0,1.012-0.052,1.507-0.155c0.496-0.093,0.981-0.247,1.456-0.444  c0.465-0.186,0.908-0.423,1.332-0.702c0.423-0.289,0.816-0.609,1.177-0.97c0.361-0.351,0.681-0.754,0.96-1.177  c0.279-0.413,0.516-0.867,0.712-1.332c0.196-0.464,0.341-0.96,0.444-1.445c0.103-0.506,0.155-1.012,0.155-1.517  c0-0.506-0.051-1.012-0.155-1.518c-0.103-0.485-0.248-0.981-0.444-1.445c-0.196-0.465-0.434-0.919-0.712-1.332  c-0.279-0.434-0.599-0.826-0.96-1.177c-0.361-0.361-0.754-0.681-1.177-0.97c-0.423-0.279-0.867-0.516-1.332-0.712  c-0.475-0.186-0.96-0.341-1.456-0.434c-1.001-0.207-2.023-0.207-3.024,0c-0.496,0.093-0.981,0.248-1.446,0.434  c-0.475,0.196-0.918,0.434-1.342,0.712c-0.423,0.289-0.816,0.609-1.177,0.97c-0.351,0.351-0.681,0.744-0.96,1.177  c-0.279,0.413-0.516,0.867-0.712,1.332c-0.197,0.464-0.341,0.96-0.444,1.445c-0.093,0.506-0.145,1.012-0.145,1.518  s0.052,1.012,0.145,1.517C297.425,103.103,297.569,103.599,297.766,104.063z" fill="#b5d3e3"/><g><path d="M483.011,159.841c-0.279-0.423-0.609-0.826-0.96-1.177c-1.796-1.807-4.48-2.632-6.989-2.116   c-0.496,0.093-0.981,0.248-1.445,0.434c-0.475,0.196-0.919,0.434-1.342,0.712c-0.423,0.289-0.815,0.609-1.177,0.97   c-0.361,0.351-0.682,0.754-0.96,1.177c-0.279,0.413-0.516,0.867-0.712,1.332c-0.196,0.464-0.341,0.96-0.444,1.445   c-0.103,0.506-0.155,1.012-0.155,1.517c0,2.034,0.826,4.037,2.271,5.472c0.361,0.361,0.754,0.682,1.177,0.97   c0.423,0.279,0.868,0.516,1.342,0.702c0.464,0.196,0.95,0.351,1.445,0.444c0.496,0.103,1.002,0.155,1.507,0.155   c0.506,0,1.022-0.051,1.518-0.155c0.496-0.093,0.98-0.247,1.445-0.444c0.465-0.186,0.919-0.423,1.342-0.702   c0.423-0.289,0.816-0.609,1.177-0.97c0.351-0.351,0.682-0.754,0.96-1.177c0.279-0.413,0.516-0.867,0.712-1.332   c0.196-0.464,0.341-0.96,0.444-1.445c0.093-0.506,0.145-1.012,0.145-1.518c0-0.506-0.051-1.012-0.145-1.517   c-0.103-0.485-0.247-0.981-0.444-1.445C483.527,160.708,483.29,160.254,483.011,159.841z" fill="#3f7196"/><path d="M42.227,170.392c-0.496,0.093-0.98,0.248-1.445,0.434c-0.475,0.196-0.919,0.434-1.342,0.712   c-0.423,0.289-0.816,0.609-1.177,0.97c-0.351,0.351-0.682,0.743-0.96,1.177c-0.279,0.413-0.516,0.868-0.712,1.332   c-0.196,0.465-0.341,0.95-0.444,1.446c-0.103,0.506-0.155,1.012-0.155,1.517c0,0.506,0.052,1.012,0.155,1.507   c0.103,0.496,0.248,0.981,0.444,1.456c0.196,0.465,0.434,0.919,0.712,1.332c0.279,0.423,0.609,0.826,0.96,1.177   c0.361,0.361,0.754,0.681,1.177,0.96s0.867,0.527,1.342,0.712c0.465,0.196,0.95,0.351,1.445,0.444   c0.496,0.103,1.012,0.155,1.518,0.155c2.033,0,4.026-0.826,5.471-2.271c0.351-0.351,0.682-0.754,0.96-1.177   c0.279-0.413,0.516-0.867,0.712-1.332c0.196-0.475,0.341-0.96,0.444-1.456c0.103-0.495,0.145-1.001,0.145-1.507   c0-2.044-0.826-4.037-2.261-5.471C47.42,170.702,44.736,169.875,42.227,170.392z" fill="#3f7196"/></g><path d="M377.969,405.572c-2.034,0-4.027,0.826-5.472,2.271c-1.445,1.435-2.271,3.438-2.271,5.471  c0,0.506,0.051,1.012,0.155,1.507c0.093,0.496,0.247,0.981,0.444,1.456c0.186,0.465,0.434,0.919,0.712,1.332  c0.279,0.423,0.598,0.826,0.96,1.177c1.435,1.445,3.438,2.271,5.472,2.271c0.506,0,1.012-0.051,1.517-0.155  c0.496-0.093,0.981-0.247,1.445-0.444c0.465-0.185,0.919-0.423,1.342-0.702c0.423-0.289,0.816-0.609,1.166-0.97  c0.361-0.351,0.682-0.754,0.97-1.177c0.279-0.413,0.516-0.867,0.712-1.332c0.186-0.475,0.341-0.96,0.434-1.456  c0.103-0.496,0.155-1.001,0.155-1.507c0-2.044-0.826-4.036-2.271-5.471C382.005,406.398,380.013,405.572,377.969,405.572z" fill="#b5d3e3"/><g><path d="M190.707,231.403c3.833,0,7.163-2.846,7.669-6.748c0.55-4.241-2.442-8.124-6.683-8.674   c-37.902-4.915-72.262-14.552-96.758-27.138c-2.663,4.535-4.787,9.245-6.401,14.109c26.348,13.402,61.299,23.216,101.169,28.385   C190.04,231.382,190.376,231.403,190.707,231.403z" fill="#cc2e43"/><path d="M185.514,269.957c0.362,0.05,0.722,0.075,1.077,0.075c3.803,0,7.12-2.803,7.659-6.676   c0.59-4.235-2.366-8.147-6.601-8.736c-10.533-1.466-20.835-3.301-30.621-5.452c-27.653-6.079-51.419-14.533-68.73-24.448   c-1.162-0.666-2.425-0.996-3.677-1.023c-0.339,5.508-0.189,11.146,0.402,16.885c18.148,9.628,41.749,17.79,68.679,23.71   C163.882,266.53,174.584,268.436,185.514,269.957z" fill="#cc2e43"/><path d="M319.752,309.461c4.238-0.567,7.214-4.463,6.647-8.701c-0.567-4.238-4.458-7.22-8.701-6.647   c-20.531,2.747-42.026,4.14-63.885,4.14c-60.062,0-118.756-10.895-157.008-29.144c-1.884-0.9-3.948-0.965-5.782-0.353   c1.819,5.834,3.973,11.719,6.426,17.629c40.122,17.198,97.766,27.353,156.364,27.353   C276.357,313.738,298.542,312.299,319.752,309.461z" fill="#cc2e43"/><path d="M414.378,266.25c-10.825,5.904-22.751,10.703-38.667,15.56c-4.09,1.248-6.394,5.575-5.146,9.665   c1.018,3.337,4.086,5.485,7.403,5.485c0.748,0,1.509-0.109,2.262-0.339c13.166-4.017,23.83-8.036,33.458-12.639   c2.652-6.138,4.98-12.227,6.94-18.238C418.637,265.052,416.375,265.161,414.378,266.25z" fill="#cc2e43"/></g></g><g transform="matrix(0.1171877309679985 0 0 0.1171877309679985 182.00000124454755 126)" id="L1_7"><path d="M412.41,0H99.589C47.531,0,5.332,42.201,5.332,94.257v205.172c0,52.057,42.201,94.257,94.257,94.257  h44.894c2.136,0,3.867,1.731,3.867,3.867v101.207c0,11.966,14.637,17.768,22.834,9.05l106.188-112.906  c0.731-0.778,1.751-1.218,2.818-1.218h132.22c52.057,0,94.257-42.201,94.257-94.257V94.257C506.667,42.201,464.466,0,412.41,0z" fill="#ec5569"/><path d="M188.005,358.509c0-2.249-1.676-4.072-3.744-4.072h-43.462c-50.396,0-91.25-44.439-91.25-99.257  V39.123c0-9.276,1.174-18.253,3.361-26.77C24.489,28.587,5.332,59.184,5.332,94.257v205.172c0,52.056,42.201,94.257,94.257,94.257  h44.894c2.136,0,3.867,1.732,3.867,3.867v101.207c0,11.966,14.637,17.768,22.834,9.05l16.82-17.885V358.509H188.005z" fill="#e63950"/><path d="M361.908,122.325L361.908,122.325c-23.931-23.931-62.731-23.931-86.663,0l-13.518,13.518  c-3.223,3.223-8.45,3.223-11.673,0l-13.302-13.302c-23.931-23.931-62.731-23.931-86.663,0l0,0  c-23.931,23.931-23.931,62.731,0,86.663l99.973,99.973c3.223,3.223,8.45,3.223,11.673,0l100.172-100.189  C385.839,185.056,385.839,146.257,361.908,122.325z" fill="#ec5569"/><path d="M361.908,122.325L361.908,122.325c-23.931-23.931-62.731-23.931-86.663,0l-13.518,13.518  c-3.223,3.223-8.45,3.223-11.673,0l-13.302-13.302c-23.931-23.931-62.731-23.931-86.663,0l0,0  c-23.931,23.931-23.931,62.731,0,86.663l99.973,99.973c3.223,3.223,8.45,3.223,11.673,0l100.172-100.189  C385.839,185.056,385.839,146.257,361.908,122.325z" fill="#fff5f5"/><path d="M182.145,209.204c-23.931-23.931-23.931-62.731,0-86.663l0,0c7.85-7.85,17.304-13.108,27.303-15.807  c-20.486-5.532-43.278-0.274-59.358,15.807l0,0c-23.931,23.931-23.931,62.731,0,86.663l99.973,99.973  c3.223,3.223,8.45,3.223,11.673,0l10.19-10.192L182.145,209.204z" fill="#dce6eb"/></g><g transform="matrix(0.1171875 0 0 0.1171875 -26 77.00000055789951)" id="L1_8"><g><path d="M411.483,153.709c-2.33,0.99-3.736,0.847-4.204,3.527l-39.225,224.894   c-0.732,4.204,2.08,8.206,6.284,8.939c0.45,0.078,0.896,0.116,1.337,0.116c3.684,0,6.948-2.646,7.602-6.4l38.24-219.178   C419.07,161.248,415.915,156.941,411.483,153.709z" fill="#7acba7"/><path d="M222.938,389.78c-2.788,0-5.481-1.514-6.858-4.158l-86.775-166.518   c-1.973-3.784-0.503-8.45,3.282-10.422c3.783-1.974,8.451-0.504,10.422,3.282l86.775,166.518c1.973,3.784,0.503,8.45-3.282,10.422   C225.361,389.498,224.14,389.78,222.938,389.78z" fill="#7acba7"/><path d="M346.831,360.104c-0.073,0-0.146-0.001-0.219-0.003c-4.266-0.119-7.626-3.673-7.508-7.939   l5.367-192.643c0.119-4.266,3.678-7.608,7.939-7.508c4.266,0.119,7.626,3.673,7.508,7.939l-5.367,192.643   C354.434,356.786,350.999,360.104,346.831,360.104z" fill="#7acba7"/><path d="M260.383,386.154c-3.353,0-6.441-2.2-7.419-5.584l-52.877-183.033   c-1.184-4.1,1.179-8.383,5.279-9.568c4.101-1.184,8.383,1.179,9.568,5.279l52.877,183.033c1.184,4.1-1.179,8.383-5.279,9.568   C261.814,386.055,261.092,386.154,260.383,386.154z" fill="#7acba7"/><path d="M310.789,378.36c-3.704,0-6.975-2.671-7.61-6.445l-33.141-196.918   c-0.708-4.208,2.128-8.193,6.337-8.901c4.205-0.709,8.193,2.129,8.901,6.337l33.141,196.918c0.708,4.208-2.128,8.193-6.337,8.901   C311.646,378.324,311.215,378.36,310.789,378.36z" fill="#7acba7"/></g><path d="M279.09,447.425h-32.785c-6.408,0-11.494-5.269-11.426-11.677c0-0.042,0.001-0.084,0.001-0.126l0,0  c0-17.706-14.486-32.192-32.192-32.192H32.192C14.486,403.43,0,417.916,0,435.622l0,0c0,17.706,14.486,32.192,32.192,32.192h32.785  c6.408,0,11.494,5.269,11.426,11.677c0,0.042-0.001,0.084-0.001,0.126l0,0c0,17.706,14.486,32.192,32.192,32.192h170.497  c17.706,0,32.192-14.486,32.192-32.192l0,0C311.282,461.911,296.796,447.425,279.09,447.425z" fill="#b5d3e3"/><path d="M30.907,435.622c0-17.706,14.486-32.192,32.192-32.192H32.192C14.486,403.43,0,417.916,0,435.622  s14.486,32.192,32.192,32.192h30.907C45.393,467.814,30.907,453.328,30.907,435.622z" fill="#8abbd5"/><path d="M232.909,44.186h32.785c6.408,0,11.494-5.27,11.426-11.677c0-0.042-0.001-0.084-0.001-0.126l0,0  c0-17.706,14.486-32.192,32.192-32.192h170.497C497.514,0.191,512,14.677,512,32.383l0,0c0,17.706-14.486,32.192-32.192,32.192  h-32.785c-6.408,0-11.494,5.269-11.426,11.677c0,0.042,0.001,0.084,0.001,0.126l0,0c0,17.706-14.486,32.192-32.192,32.192H232.909  c-17.706,0-32.192-14.486-32.192-32.192l0,0C200.718,58.672,215.204,44.186,232.909,44.186z" fill="#b5d3e3"/><path d="M224.619,427.935L83.223,231.522c-1.204-1.673-2.955-2.714-4.831-3.07  c-3.345,4.785-4.519,10.153-4.825,16.104l138.513,192.407c1.559,2.165,4.03,3.285,6.51,3.21c1.487-0.045,2.977-0.519,4.275-1.453  C226.326,436.227,227.113,431.398,224.619,427.935z" fill="#7acba7"/><path d="M363.269,349.855L363.269,349.855c-21.849-13.766-50.72-7.213-64.485,14.636l-7.775,12.342  c-1.854,2.943-5.743,3.825-8.686,1.972l-12.144-7.651c-21.849-13.766-50.719-7.213-64.485,14.636l0,0  c-13.766,21.849-7.213,50.72,14.636,64.485l91.273,57.504c2.943,1.854,6.832,0.971,8.686-1.972l57.616-91.468  C391.67,392.491,385.118,363.62,363.269,349.855z" fill="#ec5569"/><path d="M249.176,441.002c-21.849-13.766-28.402-42.636-14.636-64.485l0,0  c3.16-5.015,7.123-9.214,11.607-12.558c-15.822-0.287-31.404,7.463-40.454,21.83l0,0c-13.766,21.849-7.213,50.72,14.636,64.485  l91.273,57.504c2.943,1.855,6.832,0.971,8.686-1.972l9.02-14.32L249.176,441.002z" fill="#e63950"/><path d="M203,8.831C110.271,29.879,54.165,133.863,73.574,244.581c13.99-27.39,45.145-34.461,69.589-15.795  c13.99-27.39,45.145-34.461,69.589-15.795c13.99-27.39,45.144-34.461,69.588-15.796l0.001,0.001l0,0l0,0v-0.001  c13.99-27.389,45.145-34.46,69.588-15.794c0-0.001,0-0.001,0-0.002l0.001,0.001c9.363-18.331,26.416-27.545,44-26.049l0,0  c8.688,0.739,17.505,4.08,25.589,10.254C391.227,57.358,295.728-12.216,203,8.831z" fill="#168c80"/><path d="M233.906,8.831c6.002-1.362,12.015-2.337,18.023-2.954C235.781,4.239,219.348,5.121,203,8.831  C110.271,29.878,54.165,133.863,73.574,244.581c6.427-12.584,16.483-20.865,27.841-24.346  C93.554,118.983,148.015,28.327,233.906,8.831z" fill="#13776b"/><g><path d="M212.749,212.991c-24.446-18.667-55.599-11.589-69.589,15.792   c-17.245-79.221-4.038-153.548,59.843-219.953C188.118,64.119,195.051,133.873,212.749,212.991z" fill="#f7cf69"/><path d="M351.926,181.395v0.011c-9.23-7.047-19.419-10.425-29.278-10.425   c-16.246,0-31.606,9.168-40.311,26.218C264.155,118.184,240.286,52.273,203.004,8.83   C289.281,41.157,333.28,102.494,351.926,181.395z" fill="#f7cf69"/></g></g><g transform="matrix(0.1171875 0 0 0.1171875 83.99999865531925 200)" id="L1_9"><path d="M338.557,155.003c-0.892-1.773-2.699-2.854-4.628-2.854c-0.329,0-0.662,0.031-0.994,0.096  c-2.28,0.445-3.987,2.352-4.174,4.668c-2.748,33.809-32.396,39.883-48.67,40.642c3.509-10.153,3.064-24.634-1.352-43.236  c-5.739-24.181-16.296-47.43-19.394-53.98c-2.185-4.618-4.246-8.617-5.962-11.567c-2.37-4.076-4.178-6.747-7.585-6.747  c-1.48,0-2.908,0.622-3.916,1.706c-0.757,0.815-1.625,2.256-1.459,4.498c0.067,0.914,0.214,1.955,0.4,3.271  c1.351,9.579,4.515,32.012-19.169,51.843c-13.018,10.897-20.236,25.857-20.876,43.264c-0.236,6.429,0.467,12.072,1.256,16.18  c-10.483-2.659-26.642-15.531-35.295-23.977c-0.984-0.96-2.289-1.474-3.623-1.474c-0.539,0-1.083,0.084-1.611,0.257  c-1.835,0.6-3.184,2.171-3.502,4.075c-1.92,11.531,2.185,26.094,12.199,43.286c7.216,12.388,14.855,21.528,15.178,21.911  c0.747,0.889,1.77,1.501,2.907,1.74c14.525,3.044,27.773,10.209,38.315,20.723l17.758,17.695c3.06,3.053,7.127,4.733,11.452,4.733  c4.325,0,8.393-1.681,11.451-4.732l18.042-17.989c14.464-14.428,33.706-22.374,54.18-22.374c1.651,0,3.269,0.052,4.809,0.155  c0.116,0.008,0.23,0.011,0.345,0.011c1.257,0,2.474-0.456,3.424-1.292c1.036-0.911,1.665-2.198,1.75-3.574l0.002-0.031  C363.658,205.614,339.596,157.066,338.557,155.003z" fill="#f7cf69"/><path d="M384.645,148.283c15.075,32.42,12.205,66.922-22.268,96.439c-5.796-1.679-11.747-2.706-17.739-3.08  l0.052-0.84c10.551-26.473-1.304-61.217-7.487-76.142c-0.868-2.096-3.922-1.829-4.399,0.389  c-7.543,35.053-44.572,37.856-57.129,37.78c-1.746-0.011-2.839-1.869-2.016-3.408c16.418-30.703-23.894-117.396-28.067-111.572  c-4.038,5.637,8.388,35.189-20.611,59.469c-24.463,20.476-19.25,49.614-17.016,58.245c0.378,1.458-0.712,2.874-2.219,2.896  c-12.362,0.181-31.383-15.71-39.148-22.706c-1.488-1.34-3.874-0.288-3.87,1.716c0.053,24.427,26.62,56.06,26.62,56.06  c-15.241-3.203-31.217-2.032-45.909,3.504c-3.322-4.301-51.159-73.84,8.536-147.77c2.036-2.521,6.069-1.842,7.134,1.218  c3.425,9.838,11.569,27.069,28.069,33.918c0,0-10.922-35.844,14.805-65.089c4.421-5.025,10.728-11.203,15.904-15.448  c0.961-0.788,5.557-4.428,6.625-5.132c34.841-22.939,47.216-38.85,51.559-46.627c1.397-2.502,4.863-2.833,6.734-0.663  c10.035,11.63,32.76,42.795,21.413,75.656c-14.359,41.585-2.872,54.98-2.872,54.98s17.307-42.378,76.261-57.415  c3.067-0.782,5.857,2.01,5.047,5.069C379.135,93.038,373.188,123.665,384.645,148.283z" fill="#b5d3e3"/><path d="M166.273,115.591c-3.412-5.46-5.706-10.942-7.156-15.103  c-1.068-3.064-5.104-3.743-7.142-1.219c-59.69,73.927-11.855,143.463-8.533,147.765c7.253-2.734,14.82-4.398,22.457-5.002  C155.921,226.42,131.193,172.411,166.273,115.591z" opacity="0.1"/><path d="M143.49,241.789c14.692-5.537,30.668-6.707,45.909-3.504c14.992,3.141,29.278,10.523,40.911,22.125  l17.76,17.698c4.302,4.292,11.28,4.292,15.583,0l18.04-17.988c15.966-15.925,36.91-23.887,57.842-23.887  c1.721,0,3.442,0.052,5.153,0.166c5.992,0.374,11.944,1.399,17.739,3.08c12.805,3.701,24.872,10.585,34.95,20.642  c31.943,31.85,31.943,83.482,0,115.332l-80.838,80.599l-20.175,20.123l-32.7,32.607c-4.302,4.292-11.28,4.292-15.583,0  l-133.455-133.04c-15.966-15.925-23.96-36.796-23.96-57.665c0-20.87,7.994-41.74,23.96-57.665  C123.097,251.961,132.967,245.761,143.49,241.789z" fill="#ec5569"/><path d="M145.732,375.742c-15.966-15.925-23.96-36.796-23.96-57.665c0-20.87,7.994-41.741,23.96-57.665  c8.471-8.45,18.34-14.65,28.864-18.62c4.371-1.647,8.857-2.899,13.403-3.773c-14.816-2.847-30.266-1.594-44.508,3.773  c-10.523,3.971-20.393,10.171-28.864,18.62c-15.966,15.925-23.96,36.796-23.96,57.665c0,20.87,7.993,41.74,23.96,57.665  l133.455,133.039c4.302,4.292,11.28,4.292,15.583,0l7.76-7.738L145.732,375.742z" fill="#e63950"/></g><g transform="matrix(0.1171875 0 0 0.1171875 214.00000041484827 -22)" id="L1_10"><path d="M168.462,177.788l81.723,326.817c3.256,9.86,17.204,9.86,20.461,0l85.613-326.782L256,44.441  L168.462,177.788z" fill="#b5d3e3"/><path d="M199.383,177.788L272.506,66.4L256,44.441l-87.538,133.347l81.723,326.817  c3.256,9.86,17.204,9.86,20.461,0l5.352-20.428L199.383,177.788z" fill="#8abbd5"/><path d="M391.514,22.966L391.514,22.966c-30.621-30.621-80.267-30.621-110.888,0l-17.297,17.296  c-4.124,4.124-10.811,4.124-14.936,0l-17.02-17.02c-30.621-30.621-80.267-30.621-110.888,0l0,0  c-30.621,30.621-30.621,80.267,0,110.888l43.309,43.309v79.23c0,11.999,9.817,21.816,21.816,21.816l0,0  c11.999,0,21.816-9.817,21.816-21.816v-21.097l30.107,15.607v111.415c0,11.999,9.817,21.816,21.816,21.816l0,0  c11.999,0,21.816-9.817,21.816-21.816V244.219l54.54-54.549v39.846c0,11.999,9.817,21.816,21.816,21.816l0,0  c11.999,0,21.816-9.817,21.816-21.816V146.03l12.175-12.177C422.135,103.233,422.135,53.586,391.514,22.966z" fill="#ec5569"/><path d="M207.427,254.665V181.11c0-3.548-1.719-6.872-4.618-8.918c-11.428-8.064-40.867-28.999-51.402-38.062  c-32.829-28.24-30.621-80.267,0-110.888l0,0C162.764,11.885,176.74,4.75,191.39,1.818c-24.849-4.974-51.641,2.16-70.904,21.424l0,0  c-30.621,30.621-30.621,80.267,0,110.888l43.309,43.309v78.704c0,11.993,9.456,22.138,21.448,22.338  c6.173,0.103,11.79-2.396,15.829-6.464C207.346,264.381,207.427,260.636,207.427,254.665z" fill="#e63950"/></g></defs><g fiClass="KUsePattern"><pattern id="pattern_L1_4" width="350" height="350" patternUnits="userSpaceOnUse"><use xlinkHref="#L1_4" x="-350" y="-350"/><use xlinkHref="#L1_4" x="0" y="-350"/><use xlinkHref="#L1_4" x="350" y="-350"/><use xlinkHref="#L1_4" x="-350" y="0"/><use xlinkHref="#L1_4" x="0" y="0"/><use xlinkHref="#L1_4" x="350" y="0"/><use xlinkHref="#L1_4" x="-350" y="350"/><use xlinkHref="#L1_4" x="0" y="350"/><use xlinkHref="#L1_4" x="350" y="350"/></pattern><rect x="0" y="0" width="100%" height="100%" fill="url(#pattern_L1_4)"/></g><g fiClass="KUsePattern"><pattern id="pattern_L1_5" width="350" height="350" patternUnits="userSpaceOnUse"><use xlinkHref="#L1_5" x="-350" y="-350"/><use xlinkHref="#L1_5" x="0" y="-350"/><use xlinkHref="#L1_5" x="350" y="-350"/><use xlinkHref="#L1_5" x="-350" y="0"/><use xlinkHref="#L1_5" x="0" y="0"/><use xlinkHref="#L1_5" x="350" y="0"/><use xlinkHref="#L1_5" x="-350" y="350"/><use xlinkHref="#L1_5" x="0" y="350"/><use xlinkHref="#L1_5" x="350" y="350"/></pattern><rect x="0" y="0" width="100%" height="100%" fill="url(#pattern_L1_5)"/></g><g fiClass="KUsePattern"><pattern id="pattern_L1_6" width="350" height="350" patternUnits="userSpaceOnUse"><use xlinkHref="#L1_6" x="-350" y="-350"/><use xlinkHref="#L1_6" x="0" y="-350"/><use xlinkHref="#L1_6" x="350" y="-350"/><use xlinkHref="#L1_6" x="-350" y="0"/><use xlinkHref="#L1_6" x="0" y="0"/><use xlinkHref="#L1_6" x="350" y="0"/><use xlinkHref="#L1_6" x="-350" y="350"/><use xlinkHref="#L1_6" x="0" y="350"/><use xlinkHref="#L1_6" x="350" y="350"/></pattern><rect x="0" y="0" width="100%" height="100%" fill="url(#pattern_L1_6)"/></g><g fiClass="KUsePattern"><pattern id="pattern_L1_7" width="350" height="350" patternUnits="userSpaceOnUse"><use xlinkHref="#L1_7" x="-350" y="-350"/><use xlinkHref="#L1_7" x="0" y="-350"/><use xlinkHref="#L1_7" x="350" y="-350"/><use xlinkHref="#L1_7" x="-350" y="0"/><use xlinkHref="#L1_7" x="0" y="0"/><use xlinkHref="#L1_7" x="350" y="0"/><use xlinkHref="#L1_7" x="-350" y="350"/><use xlinkHref="#L1_7" x="0" y="350"/><use xlinkHref="#L1_7" x="350" y="350"/></pattern><rect x="0" y="0" width="100%" height="100%" fill="url(#pattern_L1_7)"/></g><g fiClass="KUsePattern"><pattern id="pattern_L1_8" width="350" height="350" patternUnits="userSpaceOnUse"><use xlinkHref="#L1_8" x="-350" y="-350"/><use xlinkHref="#L1_8" x="0" y="-350"/><use xlinkHref="#L1_8" x="350" y="-350"/><use xlinkHref="#L1_8" x="-350" y="0"/><use xlinkHref="#L1_8" x="0" y="0"/><use xlinkHref="#L1_8" x="350" y="0"/><use xlinkHref="#L1_8" x="-350" y="350"/><use xlinkHref="#L1_8" x="0" y="350"/><use xlinkHref="#L1_8" x="350" y="350"/></pattern><rect x="0" y="0" width="100%" height="100%" fill="url(#pattern_L1_8)"/></g><g fiClass="KUsePattern"><pattern id="pattern_L1_9" width="350" height="350" patternUnits="userSpaceOnUse"><use xlinkHref="#L1_9" x="-350" y="-350"/><use xlinkHref="#L1_9" x="0" y="-350"/><use xlinkHref="#L1_9" x="350" y="-350"/><use xlinkHref="#L1_9" x="-350" y="0"/><use xlinkHref="#L1_9" x="0" y="0"/><use xlinkHref="#L1_9" x="350" y="0"/><use xlinkHref="#L1_9" x="-350" y="350"/><use xlinkHref="#L1_9" x="0" y="350"/><use xlinkHref="#L1_9" x="350" y="350"/></pattern><rect x="0" y="0" width="100%" height="100%" fill="url(#pattern_L1_9)"/></g><g fiClass="KUsePattern"><pattern id="pattern_L1_10" width="350" height="350" patternUnits="userSpaceOnUse"><use xlinkHref="#L1_10" x="-350" y="-350"/><use xlinkHref="#L1_10" x="0" y="-350"/><use xlinkHref="#L1_10" x="350" y="-350"/><use xlinkHref="#L1_10" x="-350" y="0"/><use xlinkHref="#L1_10" x="0" y="0"/><use xlinkHref="#L1_10" x="350" y="0"/><use xlinkHref="#L1_10" x="-350" y="350"/><use xlinkHref="#L1_10" x="0" y="350"/><use xlinkHref="#L1_10" x="350" y="350"/></pattern><rect x="0" y="0" width="100%" height="100%" fill="url(#pattern_L1_10)"/></g></svg>
